<?xml version="1.0" standalone="no"?>
<!DOCTYPE svg PUBLIC "-//W3C//DTD SVG 20010904//EN"
 "http://www.w3.org/TR/2001/REC-SVG-20010904/DTD/svg10.dtd">
<svg version="1.0" xmlns="http://www.w3.org/2000/svg"
 width="340.000000pt" height="340.000000pt" viewBox="0 0 340.000000 340.000000"
 preserveAspectRatio="xMidYMid meet">
<metadata>
Created by potrace 1.11, written by Peter Selinger 2001-2013
</metadata>
<g transform="translate(0.000000,340.000000) scale(0.100000,-0.100000)"
fill="#000000" stroke="none">
<path d="M1664 2946 c-49 -12 -135 -62 -179 -103 -11 -11 -38 -41 -60 -68 -47
-57 -86 -95 -98 -95 -5 0 -15 -6 -22 -12 -31 -28 -44 -38 -51 -38 -3 0 -20
-11 -38 -25 -17 -14 -35 -29 -41 -33 -5 -5 -14 -10 -20 -12 -5 -2 -26 -18 -45
-37 -19 -18 -38 -33 -41 -33 -3 0 -17 -9 -30 -21 -13 -11 -33 -28 -44 -37 -11
-9 -47 -39 -80 -67 -102 -86 -159 -148 -223 -243 -19 -29 -45 -54 -56 -57 -12
-2 -41 -7 -66 -10 -70 -10 -71 -10 -145 -35 -38 -13 -73 -23 -77 -22 -5 1 -8
-3 -8 -9 0 -6 -9 -9 -20 -6 -11 3 -26 -1 -34 -8 -7 -8 -16 -12 -18 -9 -3 2
-11 -2 -17 -10 -7 -8 -19 -12 -27 -9 -8 3 -14 0 -14 -6 0 -6 -7 -11 -16 -11
-9 0 -29 -13 -44 -30 -15 -16 -31 -30 -35 -30 -18 0 -58 -57 -91 -129 -36 -78
-25 -211 22 -283 13 -21 22 -38 20 -38 -3 0 6 -11 20 -25 14 -14 22 -30 19
-35 -3 -6 1 -7 9 -4 15 6 18 2 20 -36 1 -8 3 -13 6 -10 5 4 84 -52 100 -70 3
-4 16 -14 30 -23 14 -10 25 -23 25 -30 0 -6 8 -11 17 -9 9 1 23 -7 31 -18 7
-11 16 -17 19 -14 9 9 48 -19 48 -35 0 -8 3 -11 6 -8 4 4 19 0 33 -8 14 -8 38
-19 54 -25 15 -5 27 -16 27 -24 0 -9 7 -13 20 -11 13 3 20 -2 20 -12 0 -9 6
-13 14 -10 8 3 25 -4 39 -16 13 -12 31 -23 38 -25 25 -5 58 -25 54 -32 -3 -4
3 -7 13 -6 9 0 16 -5 14 -12 -1 -8 2 -11 7 -7 13 7 71 -22 89 -44 11 -14 11
-14 6 4 -5 16 -4 17 5 5 6 -8 14 -15 18 -15 26 -2 54 -19 49 -30 -3 -8 2 -11
13 -8 10 2 24 -1 32 -9 8 -7 23 -13 34 -13 13 0 20 -7 20 -20 0 -11 -5 -20
-12 -20 -6 0 -14 -3 -18 -7 -9 -9 17 -5 33 5 7 5 10 13 7 18 -4 5 1 9 9 9 8 0
18 -4 21 -10 3 -5 15 -10 26 -10 10 0 19 -4 19 -10 0 -5 11 -10 25 -10 18 0
25 -5 25 -20 0 -11 4 -20 10 -20 5 0 7 7 3 16 -5 14 -3 15 16 4 19 -10 20 -14
10 -28 -11 -14 -11 -15 1 -4 18 16 64 16 54 0 -4 -7 -3 -8 5 -4 6 4 23 0 37
-9 14 -9 32 -14 40 -11 7 3 18 -2 23 -12 5 -9 13 -14 17 -10 3 4 16 2 28 -5
11 -6 32 -12 45 -14 12 -1 30 -10 38 -20 8 -10 12 -12 8 -5 -3 6 -2 12 4 12
13 0 32 -35 24 -44 -3 -3 -1 -6 6 -6 8 0 10 7 6 21 -6 17 -4 20 6 13 8 -5 23
-10 33 -11 11 -2 25 -8 33 -14 10 -9 13 -8 13 1 0 9 6 8 23 -3 13 -8 39 -17
58 -18 19 -2 36 -7 39 -11 3 -4 17 -8 30 -10 14 -2 31 -7 37 -11 9 -6 11 -3 7
10 -3 11 4 6 20 -12 14 -16 28 -26 32 -22 4 4 2 7 -4 7 -7 0 -12 4 -12 8 0 4
9 8 20 8 14 0 19 -5 15 -16 -5 -11 -3 -12 6 -3 14 14 42 5 32 -11 -4 -6 1 -5
11 3 15 12 19 13 26 1 6 -10 12 -11 22 -3 7 6 22 9 33 7 11 -1 39 -6 63 -9 23
-3 42 -10 42 -16 0 -5 5 -9 11 -9 5 0 8 4 5 8 -6 10 25 9 42 -2 6 -4 17 -4 22
-1 6 3 10 1 10 -4 0 -6 -5 -11 -12 -11 -6 0 -8 -3 -4 -7 4 -5 14 1 22 11 10
14 14 16 14 5 0 -12 2 -12 9 0 5 7 14 10 21 6 9 -6 9 -10 -1 -16 -10 -6 -6 -8
10 -6 14 2 27 9 29 16 3 9 8 9 20 -1 9 -7 13 -8 10 -3 -4 6 24 10 75 10 45 0
85 4 88 8 3 5 9 2 12 -7 4 -10 1 -16 -8 -16 -8 0 -15 -5 -15 -10 0 -7 6 -7 20
0 12 6 17 17 14 28 -4 11 1 9 14 -7 14 -18 21 -21 27 -11 5 9 4 11 -3 6 -7 -4
-12 -1 -12 7 0 8 9 13 23 12 12 -1 22 -8 22 -16 0 -8 11 -15 25 -16 22 -2 23
-1 4 5 -28 9 -17 37 16 38 14 0 36 3 49 5 20 3 27 -1 32 -21 l8 -25 -1 25 c-1
39 3 47 12 25 7 -16 9 -17 9 -3 1 15 45 32 86 33 6 0 12 2 15 5 3 3 30 18 60
34 59 32 111 66 121 80 4 4 10 3 13 -3 9 -14 26 -14 26 0 0 5 -4 7 -10 4 -20
-12 -9 6 20 35 30 29 47 39 35 21 -3 -6 3 -14 12 -20 17 -9 17 -11 -1 -24 -16
-11 -16 -15 -5 -22 8 -5 11 -5 7 0 -4 4 0 14 10 22 15 11 15 14 2 25 -8 7 -16
21 -18 31 -3 15 0 16 17 5 11 -6 19 -16 18 -21 -1 -5 4 -11 11 -12 7 -2 8 -1
2 2 -5 2 -8 9 -4 14 3 5 -2 12 -10 15 -9 3 -16 16 -16 28 0 17 2 18 10 6 9
-13 10 -13 10 0 0 9 8 16 19 17 13 1 17 -3 14 -17 -3 -10 -1 -20 4 -23 5 -3 8
7 7 21 0 17 -6 27 -17 27 -8 0 -19 4 -23 8 -4 4 -3 7 2 7 6 0 19 7 30 16 18
15 18 15 0 10 -16 -5 -17 -4 -7 8 10 12 17 13 31 4 10 -7 16 -16 13 -22 -3 -5
-1 -6 5 -2 6 3 9 16 7 27 -3 15 0 19 10 15 8 -3 17 -1 19 3 3 5 -5 8 -17 7
-12 -1 -21 -7 -19 -14 3 -15 -14 -16 -24 -1 -3 6 -2 14 5 18 6 4 9 17 6 30 -3
17 0 21 10 17 8 -3 17 0 21 6 4 7 3 8 -4 4 -7 -4 -12 -3 -12 2 0 6 7 13 16 16
11 4 12 10 6 22 -6 11 -4 33 5 63 8 25 17 62 19 81 3 19 6 43 8 53 2 9 0 17
-6 17 -5 0 -6 5 -3 10 4 6 11 7 17 4 6 -4 8 -2 4 4 -3 5 -3 12 1 15 5 2 2 2
-4 1 -8 -2 -13 7 -13 26 0 16 -5 32 -11 36 -6 3 -9 17 -6 30 2 13 1 21 -4 19
-4 -3 -15 9 -23 26 -15 29 -15 33 2 46 15 13 15 13 -5 4 -18 -9 -25 -7 -45 19
-13 17 -53 60 -90 97 -51 50 -68 74 -67 93 2 36 -4 53 -24 68 -9 7 -15 18 -11
23 3 5 0 8 -7 7 -9 -2 -13 9 -13 34 0 20 -3 35 -7 32 -4 -2 -13 9 -21 26 -9
21 -20 30 -35 30 -13 0 -23 5 -23 10 0 6 -11 10 -25 10 -14 0 -25 5 -25 10 0
6 -18 10 -39 10 -22 0 -43 5 -46 10 -3 6 -19 10 -35 10 -31 0 -45 17 -54 62
-2 14 -15 37 -29 52 -41 44 -41 74 -2 66 5 -1 6 2 2 7 -5 4 -16 8 -25 8 -9 0
-21 10 -27 23 -5 12 -14 22 -19 22 -4 0 -2 8 5 18 7 9 9 14 5 10 -12 -11 -35
22 -36 50 0 13 -4 21 -10 17 -11 -7 -42 49 -32 60 4 5 2 5 -4 2 -11 -6 -60 55
-76 96 -4 9 -12 17 -18 17 -5 0 -10 5 -10 10 0 6 -9 20 -20 32 -11 12 -20 28
-20 35 0 7 -3 13 -8 13 -13 0 -45 68 -39 84 4 9 1 15 -6 13 -7 -1 -13 9 -14
23 -6 61 -9 76 -16 88 -5 7 -4 12 2 12 6 0 11 5 11 11 0 5 -4 8 -9 4 -12 -7
-32 28 -28 47 2 7 2 9 -1 5 -2 -4 -10 -3 -18 4 -8 6 -11 15 -8 20 3 5 1 9 -4
9 -6 0 -24 14 -42 30 -18 17 -38 30 -46 30 -8 0 -14 4 -14 9 0 10 -39 27 -52
23 -5 -1 -8 2 -8 6 0 5 -6 9 -12 10 -7 0 -53 10 -102 21 -100 23 -185 25 -262
7z m1571 -1986 c3 -5 1 -10 -4 -10 -6 0 -11 5 -11 10 0 6 2 10 4 10 3 0 8 -4
11 -10z"/>
<path d="M2300 2605 c0 -2 6 -8 13 -14 10 -8 14 -7 14 2 0 8 -6 14 -14 14 -7
0 -13 -1 -13 -2z"/>
<path d="M3300 1185 c0 -2 6 -8 13 -14 10 -8 14 -7 14 2 0 8 -6 14 -14 14 -7
0 -13 -1 -13 -2z"/>
<path d="M3306 1078 c3 -5 10 -6 15 -3 13 9 11 12 -6 12 -8 0 -12 -4 -9 -9z"/>
<path d="M456 1033 c-6 -14 -5 -15 5 -6 7 7 10 15 7 18 -3 3 -9 -2 -12 -12z"/>
<path d="M3260 1046 c0 -2 11 -6 25 -8 13 -3 22 -1 19 3 -5 9 -44 13 -44 5z"/>
<path d="M3260 1000 c-9 -6 -10 -10 -3 -10 6 0 15 5 18 10 8 12 4 12 -15 0z"/>
<path d="M613 969 c-2 -23 3 -25 10 -4 4 8 3 16 -1 19 -4 3 -9 -4 -9 -15z"/>
<path d="M3277 983 c-11 -11 -8 -21 9 -27 14 -5 15 -4 5 8 -9 11 -9 15 1 19 7
3 8 6 2 6 -6 1 -14 -2 -17 -6z"/>
<path d="M3255 939 c-8 -12 0 -22 20 -25 8 -1 13 2 9 7 -3 5 -10 6 -16 3 -7
-5 -9 -1 -5 9 7 19 2 23 -8 6z"/>
<path d="M3232 901 c-11 -6 -10 -10 4 -15 9 -4 22 -2 28 4 8 8 6 9 -8 4 -13
-5 -17 -4 -12 4 8 14 6 15 -12 3z"/>
<path d="M846 842 c-3 -5 1 -9 9 -9 8 0 12 4 9 9 -3 4 -7 8 -9 8 -2 0 -6 -4
-9 -8z"/>
<path d="M930 816 c0 -2 8 -10 18 -17 15 -13 16 -12 3 4 -13 16 -21 21 -21 13z"/>
<path d="M3235 809 c-4 -6 -5 -12 -2 -15 2 -3 7 2 10 11 7 17 1 20 -8 4z"/>
<path d="M3190 800 c0 -5 5 -10 11 -10 5 0 7 5 4 10 -3 6 -8 10 -11 10 -2 0
-4 -4 -4 -10z"/>
<path d="M960 780 c-9 -6 -10 -10 -3 -10 6 0 15 5 18 10 8 12 4 12 -15 0z"/>
<path d="M3150 741 c0 -6 4 -13 10 -16 6 -3 7 1 4 9 -7 18 -14 21 -14 7z"/>
<path d="M1055 720 c-3 -5 -1 -10 4 -10 6 0 11 5 11 10 0 6 -2 10 -4 10 -3 0
-8 -4 -11 -10z"/>
<path d="M1215 680 c3 -5 8 -10 11 -10 2 0 4 5 4 10 0 6 -5 10 -11 10 -5 0 -7
-4 -4 -10z"/>
<path d="M1275 660 c3 -5 8 -10 11 -10 2 0 4 5 4 10 0 6 -5 10 -11 10 -5 0 -7
-4 -4 -10z"/>
<path d="M1318 653 c7 -3 16 -2 19 1 4 3 -2 6 -13 5 -11 0 -14 -3 -6 -6z"/>
<path d="M3070 645 c0 -8 4 -15 10 -15 5 0 7 7 4 15 -4 8 -8 15 -10 15 -2 0
-4 -7 -4 -15z"/>
<path d="M1373 635 c0 -8 4 -12 9 -9 5 3 6 10 3 15 -9 13 -12 11 -12 -6z"/>
<path d="M3015 630 c6 -10 4 -12 -11 -6 -15 6 -17 5 -6 -5 9 -9 15 -10 23 -2
8 8 7 13 -2 18 -8 6 -10 4 -4 -5z"/>
<path d="M3115 620 c3 -5 8 -10 11 -10 2 0 4 5 4 10 0 6 -5 10 -11 10 -5 0 -7
-4 -4 -10z"/>
<path d="M1440 606 c0 -2 7 -7 16 -10 8 -3 12 -2 9 4 -6 10 -25 14 -25 6z"/>
<path d="M2970 606 c0 -2 7 -7 16 -10 8 -3 12 -2 9 4 -6 10 -25 14 -25 6z"/>
<path d="M3030 601 c0 -5 8 -15 18 -22 15 -13 16 -12 4 3 -10 13 -10 17 0 21
8 4 7 6 -4 6 -10 1 -18 -3 -18 -8z"/>
<path d="M2955 589 c6 -9 3 -11 -9 -6 -10 4 -15 3 -11 -4 4 -5 16 -7 27 -3 15
4 18 3 13 -6 -5 -9 -4 -11 3 -6 16 10 15 14 -9 27 -17 9 -20 8 -14 -2z"/>
<path d="M3075 591 c-3 -5 -2 -12 3 -15 5 -3 9 1 9 9 0 17 -3 19 -12 6z"/>
<path d="M2996 565 c-3 -8 -1 -15 4 -15 6 0 10 7 10 15 0 8 -2 15 -4 15 -2 0
-6 -7 -10 -15z"/>
<path d="M1615 560 c-3 -5 -1 -10 4 -10 6 0 11 5 11 10 0 6 -2 10 -4 10 -3 0
-8 -4 -11 -10z"/>
<path d="M2900 566 c0 -2 7 -6 15 -10 8 -3 15 -1 15 4 0 6 -7 10 -15 10 -8 0
-15 -2 -15 -4z"/>
<path d="M2875 549 c-4 -6 -5 -12 -2 -15 2 -3 7 2 10 11 7 17 1 20 -8 4z"/>
<path d="M1546 542 c-3 -5 1 -9 9 -9 8 0 12 4 9 9 -3 4 -7 8 -9 8 -2 0 -6 -4
-9 -8z"/>
<path d="M2889 529 c-6 -13 -7 -19 -1 -15 6 3 13 0 16 -6 3 -7 3 -2 0 11 -5
17 -3 21 6 16 9 -5 11 -4 6 3 -10 16 -14 15 -27 -9z"/>
<path d="M2936 541 c-3 -5 1 -14 9 -21 8 -7 12 -17 8 -23 -4 -6 -1 -7 6 -3 9
6 8 12 -4 26 -13 14 -13 19 -3 23 9 4 9 6 1 6 -6 1 -14 -3 -17 -8z"/>
<path d="M1675 530 c-4 -6 -11 -7 -17 -4 -7 4 -8 2 -4 -5 6 -9 11 -9 22 0 14
11 18 19 10 19 -3 0 -8 -5 -11 -10z"/>
<path d="M1715 528 c25 -15 68 -23 45 -9 -8 5 -17 8 -21 5 -4 -2 -10 0 -14 6
-3 5 -12 10 -18 10 -7 0 -3 -6 8 -12z"/>
<path d="M2789 513 c-12 -16 -12 -17 2 -6 9 7 20 9 24 5 5 -4 5 -1 1 6 -9 16
-11 15 -27 -5z"/>
<path d="M2836 514 c-9 -24 -2 -26 12 -4 7 11 8 20 3 20 -5 0 -12 -7 -15 -16z"/>
<path d="M1790 494 c6 -6 6 -15 2 -19 -4 -5 -1 -5 6 -1 7 4 10 11 7 16 -3 4 1
10 7 13 7 3 3 4 -9 4 -15 -1 -19 -5 -13 -13z"/>
<path d="M2850 490 c-6 -11 -8 -20 -6 -20 3 0 10 9 16 20 6 11 8 20 6 20 -3 0
-10 -9 -16 -20z"/>
<path d="M2675 490 c-3 -5 -2 -18 4 -27 7 -14 9 -12 8 10 -2 30 -3 31 -12 17z"/>
<path d="M1846 478 c3 -5 10 -6 15 -3 13 9 11 12 -6 12 -8 0 -12 -4 -9 -9z"/>
<path d="M1920 480 c-9 -6 -10 -10 -3 -10 6 0 15 5 18 10 8 12 4 12 -15 0z"/>
<path d="M1984 469 c0 -13 3 -15 13 -7 7 6 13 14 13 18 0 3 -6 7 -13 7 -7 0
-13 -8 -13 -18z"/>
<path d="M2740 479 c0 -4 10 -6 21 -4 32 6 34 13 4 13 -14 0 -25 -4 -25 -9z"/>
<path d="M2873 474 c0 -9 4 -11 12 -4 7 5 14 9 16 7 2 -1 3 0 1 2 -7 11 -29 7
-29 -5z"/>
<path d="M1890 471 c0 -6 4 -13 10 -16 6 -3 7 1 4 9 -7 18 -14 21 -14 7z"/>
<path d="M2054 456 c1 -8 5 -18 8 -22 4 -3 5 1 4 10 -1 8 -5 18 -8 22 -4 3 -5
-1 -4 -10z"/>
<path d="M2135 460 c-3 -6 1 -7 9 -4 18 7 21 14 7 14 -6 0 -13 -4 -16 -10z"/>
<path d="M2635 460 c-4 -6 1 -7 11 -3 13 5 15 3 9 -7 -5 -9 -4 -11 4 -6 6 4 9
12 6 17 -8 12 -22 12 -30 -1z"/>
<path d="M2788 463 c7 -3 16 -2 19 1 4 3 -2 6 -13 5 -11 0 -14 -3 -6 -6z"/>
<path d="M2339 458 c-5 -18 -6 -38 -1 -34 7 8 12 36 6 36 -2 0 -4 -1 -5 -2z"/>
<path d="M2381 444 c0 -11 3 -14 6 -6 3 7 2 16 -1 19 -3 4 -6 -2 -5 -13z"/>
<path d="M2406 443 c-6 -14 -5 -15 5 -6 7 7 10 15 7 18 -3 3 -9 -2 -12 -12z"/>
<path d="M2155 440 c3 -5 8 -10 11 -10 2 0 4 5 4 10 0 6 -5 10 -11 10 -5 0 -7
-4 -4 -10z"/>
<path d="M2206 442 c-3 -5 1 -9 9 -9 8 0 15 4 15 9 0 4 -4 8 -9 8 -6 0 -12 -4
-15 -8z"/>
<path d="M2290 440 c0 -5 5 -10 10 -10 6 0 10 5 10 10 0 6 -4 10 -10 10 -5 0
-10 -4 -10 -10z"/>
<path d="M2500 440 c-12 -7 -10 -9 7 -7 12 0 19 5 17 9 -6 10 -6 10 -24 -2z"/>
<path d="M2546 442 c-3 -5 1 -9 9 -9 8 0 15 4 15 9 0 4 -4 8 -9 8 -6 0 -12 -4
-15 -8z"/>
</g>
</svg>
